PathFileType	3	(X/Y/Z)	D:\Vicon Setup\UG\Test1\New Session\NewSession10.trc
DataRate	CameraRate	NumFrames	NumMarkers	Units	OrigDataRate	OrigDataStartFrame	OrigNumFrames
100.0	100.0	8	27	mm	100.0	482	353	
Frame#	Time	Sternum			LShoulder			RShoulder			LASIS			RASIS			RPSIS			LPSIS			RKneeLateral			RKneeMedial			RFibulaHead			RMidShank			RAnkleLateral			RAnkleMedial			RHeel			RMT5			RMT2			RToe			LKneeLateral			LKneeMedial			LFibulaHead			LMidShank			LAnkleLateral			LAnkleMedial			LHeel			LMT5			LMT2			LToe			
		X1	Y1	Z1	X2	Y2	Z2	X3	Y3	Z3	X4	Y4	Z4	X5	Y5	Z5	X6	Y6	Z6	X7	Y7	Z7	X8	Y8	Z8	X9	Y9	Z9	X10	Y10	Z10	X11	Y11	Z11	X12	Y12	Z12	X13	Y13	Z13	X14	Y14	Z14	X15	Y15	Z15	X16	Y16	Z16	X17	Y17	Z17	X18	Y18	Z18	X19	Y19	Z19	X20	Y20	Z20	X21	Y21	Z21	X22	Y22	Z22	X23	Y23	Z23	X24	Y24	Z24	X25	Y25	Z25	X26	Y26	Z26	X27	Y27	Z27	
482	4.81	-261.08472	1327.1976	-2701.9487	-64.707085	1408.1013	-2770.0898	-427.4761	1366.4525	-2810.709	-113.50986	948.54639	-2754.6101	-369.2684	976.54364	-2769.6218	-293.81271	983.55634	-2942.3823	-162.88553	979.6748	-2934.8496	-401.62396	521.26709	-2668.9863	-271.82706	510.23853	-2640.7437	-403.19717	441.16098	-2648.6628	-316.29153	288.28592	-2593.8071	-364.65872	81.235077	-2608.6655	-289.77078	123.00678	-2567.3701	-300.88181	58.462013	-2669.5852	-394.80914	35.253723	-2449.6797	-333.52893	80.056335	-2454.8284	-321.76743	77.127991	-2400.6138	-75.033989	489.06677	-2917.2834	-199.45772	466.11398	-2899.3855	-71.375534	444.86737	-2964.8762	-153.70547	305.21347	-3033.1118	-112.94423	184.13527	-3216.2832	-191.89545	173.40767	-3171.3489	-171.6062	221.84125	-3277.6094	-89.86515	45.462925	-3187.1941	-152.56555	52.036232	-3156.5181	-157.34628	30.771587	-3128.5164
483	4.82	-262.13678	1328.981	-2686.3867	-66.064453	1410.2545	-2755.1145	-428.80243	1367.7413	-2794.5601	-115.5767	949.3407	-2738.9043	-370.93848	979.85938	-2752.9695	-295.28812	985.89038	-2925.8108	-164.44081	980.20203	-2918.8281	-404.08185	522.90491	-2653.5425	-274.19989	512.76465	-2627.0178	-404.61627	442.10681	-2635.2051	-316.57245	288.28513	-2586.1306	-363.94934	82.050522	-2606.9763	-288.75427	122.5311	-2565.0708	-300.95828	58.862766	-2669.1836	-395.28745	33.535622	-2448.0269	-332.92282	76.390831	-2452.1157	-320.18091	71.547874	-2397.8848	-73.262085	486.94342	-2890.1057	-196.90271	461.45798	-2868.4392	-69.649834	444.2399	-2938.0273	-151.32565	306.43082	-3009.2385	-111.68997	192.73758	-3196.5271	-189.90089	178.9938	-3151.5171	-171.01228	237.23851	-3251.5908	-90.022919	50.170448	-3182.3638	-151.67352	54.068359	-3148.9778	-156.64062	28.322704	-3125.1594
484	4.83	-262.81091	1331.0276	-2671.0491	-67.181129	1412.6547	-2740.7366	-429.9303	1369.3993	-2778.3762	-117.63062	950.60449	-2723.4736	-372.76718	983.05908	-2736.6008	-296.89404	988.28595	-2909.5693	-166.17622	981.02563	-2903.2498	-405.75641	523.72076	-2640.4165	-276.23196	514.64661	-2613.2432	-405.55157	442.46664	-2623.7217	-316.16373	288.04214	-2579.6409	-362.82248	82.888275	-2605.5442	-287.319	122.03495	-2563.0674	-300.79593	59.171616	-2668.8616	-395.6904	32.28088	-2446.9514	-332.39459	73.223618	-2449.9404	-318.96057	66.684937	-2395.8667	-71.669464	485.32776	-2862.0261	-194.77431	457.44888	-2836.5925	-68.079895	444.06372	-2909.9985	-149.25168	308.15359	-2983.9138	-110.56593	201.59117	-3174.7756	-188.06555	184.76125	-3129.6196	-170.69464	252.12904	-3222.7563	-90.152458	56.377007	-3175.9221	-150.41803	57.101292	-3139.4534	-155.52928	25.142885	-3120.3379
485	4.84	-263.13882	1333.33	-2655.9292	-68.050529	1415.2242	-2726.9365	-430.91141	1371.3855	-2762.1748	-119.61822	952.39539	-2708.2671	-374.69232	986.07483	-2720.5166	-298.70294	990.66638	-2893.6731	-168.12091	982.13208	-2888.0781	-406.60007	523.83893	-2629.8596	-277.75443	515.54199	-2600.0635	-406.08484	442.38333	-2614.2236	-315.26993	287.58334	-2574.1055	-361.47446	83.702187	-2604.2949	-285.62274	121.54519	-2561.2124	-300.44437	59.45245	-2668.5635	-395.99332	31.122955	-2446.321	-332.00793	70.481125	-2448.1907	-318.31461	62.276772	-2394.438	-70.240791	484.52161	-2833.3279	-193.17104	454.69116	-2804.699	-66.631531	444.52277	-2881.1033	-147.55688	310.39172	-2957.3252	-109.82426	210.38913	-3151.207	-186.59215	190.4287	-3105.7551	-171.1004	265.70856	-3191.8704	-90.218559	63.933701	-3166.9871	-148.88483	61.316662	-3127.3103	-153.96588	21.812094	-3113.2776
486	4.85	-263.19016	1335.8953	-2641.0044	-68.689316	1417.9122	-2713.6267	-431.79456	1373.6781	-2745.9797	-121.49043	954.73981	-2693.2642	-376.61932	988.89435	-2704.7358	-300.72357	993.03339	-2878.1079	-170.24835	983.5434	-2873.241	-406.68994	523.58282	-2621.5488	-278.61917	515.49237	-2588.2759	-406.25778	442.07141	-2606.4844	-314.17853	286.98654	-2569.2119	-360.05487	84.49987	-2603.1807	-283.80161	121.09084	-2559.4961	-299.96402	59.739445	-2668.2666	-396.16757	30.042595	-2445.9761	-331.67694	68.163528	-2446.7751	-318.21445	58.178234	-2393.4841	-68.9702	484.73782	-2804.3086	-192.09377	453.60104	-2773.4524	-65.315025	445.68704	-2851.6658	-146.33018	313.12085	-2929.7615	-109.72246	218.92401	-3126.1821	-185.67671	195.86089	-3080.2119	-172.6138	277.34128	-3160.1643	-90.114998	72.463913	-3154.4258	-147.17059	66.703316	-3111.7688	-151.83885	19.534933	-3102.6704
487	4.86	-263.05972	1338.7284	-2626.2373	-69.140465	1420.6897	-2700.6665	-432.60843	1376.2719	-2729.8267	-123.20811	957.60718	-2678.4729	-378.46335	991.5481	-2689.2773	-302.88135	995.44867	-2862.8181	-172.46863	985.29932	-2858.6445	-406.17667	523.32373	-2614.7292	-278.72803	514.91254	-2578.4392	-406.07391	441.7485	-2600.0974	-313.12625	286.3613	-2564.679	-358.6601	85.306969	-2602.157	-281.95755	120.68447	-2557.959	-299.40903	60.043007	-2667.9697	-396.19592	29.193174	-2445.7642	-331.28024	66.279022	-2445.6057	-318.43842	54.379013	-2392.8213	-67.88208	486.04971	-2775.2385	-191.44316	454.31345	-2743.2551	-64.192871	447.52109	-2821.9932	-145.69099	316.34018	-2901.5686	-110.4512	227.11958	-3100.1101	-185.49617	201.15486	-3053.3579	-175.37898	286.72046	-3129.0256	-89.694382	81.398552	-3137.04	-145.35994	72.992546	-3092.0291	-148.99567	19.695353	-3086.7805
488	4.87	-262.8436	1341.8099	-2611.5916	-69.461914	1423.5353	-2687.8992	-433.36197	1379.1639	-2713.7566	-124.75251	960.91217	-2663.9099	-380.18506	994.10321	-2674.1277	-305.04297	997.99347	-2847.7288	-174.65544	987.43127	-2844.2007	-405.25156	523.34491	-2608.5151	-278.06589	514.34583	-2570.7563	-405.54135	441.59174	-2594.572	-312.21375	285.82932	-2560.3562	-357.35733	86.132378	-2601.1987	-280.16528	120.34063	-2556.627	-298.82941	60.3633	-2667.6812	-396.08408	28.706211	-2445.5896	-330.74796	64.823692	-2444.616	-318.69159	51.002541	-2392.2498	-67.011429	488.38681	-2746.3049	-191.06039	456.70078	-2714.1836	-63.334785	449.94235	-2792.3459	-145.74243	320.07828	-2873.0234	-112.06116	234.92986	-3073.2534	-186.18411	206.54671	-3025.4949	-179.21924	293.86169	-3099.4934	-88.844963	90.061279	-3113.9539	-143.54286	79.729965	-3067.5259	-145.44086	22.812857	-3064.2197
489	4.88	-262.61163	1345.0869	-2597.0461	-69.70977	1426.4214	-2675.1926	-434.05725	1382.3397	-2697.8059	-126.133	964.54205	-2649.5813	-381.78381	996.64856	-2659.2275	-307.06964	1000.7293	-2832.7847	-176.69281	989.94415	-2829.8494	-404.12103	523.77429	-2602.199	-276.7392	514.17889	-2565.1025	-404.71704	441.71362	-2589.45	-311.396	285.4967	-2556.2502	-356.20319	86.958374	-2600.303	-278.49957	120.08812	-2555.4893	-298.27795	60.707302	-2667.4119	-395.8652	28.579519	-2445.4202	-330.1001	63.770592	-2443.7729	-318.78067	48.215107	-2391.6685	-66.374207	491.58261	-2717.6047	-190.78842	460.45984	-2686.0325	-62.783665	452.87289	-2762.9097	-146.48502	324.32999	-2844.1909	-114.43105	242.19887	-3045.6553	-187.76207	212.175	-2996.7856	-183.71764	298.93393	-3071.8743	-87.563759	97.823807	-3085.0532	-141.82303	86.4263	-3038.2112	-141.48186	28.074955	-3034.8005
